<?xml version="1.0" standalone="no"?>
<!DOCTYPE svg PUBLIC "-//W3C//DTD SVG 20010904//EN"
 "http://www.w3.org/TR/2001/REC-SVG-20010904/DTD/svg10.dtd">
<svg version="1.0" xmlns="http://www.w3.org/2000/svg"
 width="220.000000pt" height="220.000000pt" viewBox="0 0 220.000000 220.000000"
 preserveAspectRatio="xMidYMid meet">

<g transform="translate(0.000000,220.000000) scale(0.100000,-0.100000)"
fill="#000000" stroke="none">
<path d="M489 1843 c-13 -15 -15 -75 -13 -371 1 -261 5 -356 14 -367 19 -23
48 -18 67 12 16 24 18 51 15 258 -2 126 1 240 5 253 8 22 16 14 95 -90 186
-245 358 -428 403 -428 44 0 49 21 57 234 11 293 -9 479 -55 508 -22 14 -46 8
-62 -16 -14 -21 -14 -29 0 -87 11 -43 18 -133 22 -279 l5 -215 -67 65 c-97 95
-211 234 -320 390 -107 156 -131 175 -166 133z"/>
<path d="M1332 1850 c-18 -4 -36 -11 -40 -15 -8 -8 -17 -164 -28 -467 -6 -188
-6 -209 11 -234 l17 -27 97 6 c53 3 121 13 151 22 127 37 215 134 190 210 -12
35 -51 75 -101 100 l-28 15 25 25 c64 64 81 169 41 245 -25 48 -97 104 -155
120 -42 11 -132 12 -180 0z m189 -113 c59 -31 84 -80 69 -136 -19 -72 -107
-120 -192 -106 -40 7 -40 8 -34 44 3 20 6 78 6 129 l0 92 53 0 c37 0 68 -7 98
-23z m10 -357 c116 -36 135 -71 65 -118 -42 -29 -107 -49 -186 -58 l-60 -7 0
86 c0 47 3 92 6 101 9 23 97 21 175 -4z"/>
<path d="M19 1023 c-13 -15 -15 -75 -13 -371 1 -261 5 -356 14 -367 19 -23 48
-18 67 12 16 24 18 51 15 258 -2 126 1 240 5 253 8 22 16 14 95 -90 186 -245
358 -428 403 -428 44 0 49 21 57 234 11 293 -9 479 -55 508 -22 14 -46 8 -62
-16 -14 -21 -14 -29 0 -87 11 -43 18 -133 22 -279 l5 -215 -67 65 c-97 95
-211 234 -320 390 -107 156 -131 175 -166 133z"/>
<path d="M1972 948 c-7 -7 -12 -41 -12 -81 l0 -68 -53 6 c-58 7 -87 -8 -87
-44 0 -29 22 -40 89 -47 l61 -7 0 -193 c0 -164 2 -195 16 -209 22 -22 56 -15
72 15 10 19 12 65 6 206 l-6 181 42 7 c22 3 45 4 51 1 5 -4 18 -3 29 0 16 5
20 15 20 45 0 34 -4 41 -26 46 -14 4 -45 4 -68 1 l-43 -6 -6 64 c-2 36 -10 72
-17 80 -15 18 -51 20 -68 3z"/>
<path d="M1606 734 c-49 -52 -93 -93 -97 -92 -4 2 -34 40 -68 85 -66 90 -102
112 -128 78 -19 -28 -16 -49 12 -75 14 -13 47 -55 72 -92 l47 -69 -97 -97
c-96 -96 -111 -124 -85 -150 25 -25 53 -10 144 80 55 53 98 88 102 82 5 -5 41
-51 81 -101 45 -57 80 -93 91 -93 21 0 50 25 50 44 0 8 -37 61 -81 120 l-81
107 96 99 c56 57 96 107 96 119 0 24 -26 51 -48 50 -9 -1 -57 -43 -106 -95z"/>
<path d="M885 782 c-78 -36 -131 -126 -141 -234 -11 -111 25 -186 110 -231 33
-17 58 -22 126 -22 73 0 93 4 143 28 67 33 96 75 78 113 -14 32 -36 30 -77 -5
-77 -69 -214 -65 -278 7 -19 22 -19 22 30 43 271 119 315 159 269 248 -31 61
-178 91 -260 53z m161 -87 c22 -9 33 -19 28 -26 -7 -12 -227 -119 -244 -119
-11 0 12 68 35 103 34 52 113 71 181 42z"/>
</g>
</svg>
